<svg xmlns="http://www.w3.org/2000/svg" width="104.65mm" height="25.631mm" version="1.1" viewBox="0 0 104.64799 25.631187">
	<g transform="translate(-72.408 -148.87)">
		<g transform="matrix(.26458 0 0 .26458 40.065 108.77)" viewBox="0 0 640 400">
			<svg width="640" height="400" version="1.1" viewBox="0 0 640 400">
				<g transform="translate(122.24 151.56)">
					<svg width="395.52" height="96.874" version="1.1" viewBox="0 0 397.4976 97.358154">
						<rect y="53.504" width="397.5" height="2.982" rx="1%" fill="#3C3C3C" stroke="transparent" stroke-width="0"/>
						<g transform="translate(.9888 64.292)">
							<svg width="395.52" height="33.066" version="1.1" viewBox="3.5 -35 418.62 35">
								<path d="m44.2 0h-9.1l-0.1-18.55-9 15.1h-4.4l-8.95-14.6v18.05h-9.15v-35h8.15l12.3 20.2 12-20.2h8.15zm16.8-7.65h18.3v7.65h-28.1v-35h27.45v7.65h-17.65v5.9h15.55v7.4h-15.55zm50 7.65-2.75-6.8h-14.8l-2.75 6.8h-10.1l15.45-35h9.75l15.5 35zm-14.65-14.1h9l-4.5-11.2zm27.74 14.1v-35h9.9v27.15h16.7v7.85zm61.05-35q4.75 0 8.25 1.57 3.5 1.58 5.4 4.5 1.9 2.93 1.9 6.88t-1.9 6.85-5.4 4.47q-3.5 1.58-8.25 1.58h-6.1v9.15h-9.9v-35zm-0.6 18.05q3.05 0 4.6-1.33 1.55-1.32 1.55-3.77t-1.55-3.8-4.6-1.35h-5.5v10.25zm20.95 16.95v-35h9.9v27.15h16.7v7.85zm57.09 0-2.75-6.8h-14.8l-2.75 6.8h-10.1l15.45-35h9.75l15.5 35zm-14.65-14.1h9l-4.5-11.2zm51.35-20.9h9.7v35h-8.15l-15.45-18.65v18.65h-9.7v-35h8.15l15.45 18.65zm40.3 0h9.7v35h-8.15l-15.45-18.65v18.65h-9.7v-35h8.15l15.45 18.65zm26.5 27.35h18.3v7.65h-28.1v-35h27.45v7.65h-17.65v5.9h15.55v7.4h-15.55zm45.44 7.65-6.35-9.3h-5.4v9.3h-9.9v-35h16q4.75 0 8.25 1.57 3.5 1.58 5.4 4.5 1.9 2.93 1.9 6.88 0 3.8-1.77 6.62-1.78 2.83-5.08 4.43l7.55 11zm-0.1-22.05q0-2.45-1.55-3.8t-4.6-1.35h-5.5v10.25h5.5q3.05 0 4.6-1.33 1.55-1.32 1.55-3.77z" fill="#3C3C3C"/>
							</svg>
						</g>
						<g transform="translate(159.78)">
							<svg x="8" width="61.934" height="45.698" version="1.1" viewBox="10.092 21.985001 88.135002 65.029999" xml:space="preserve">
								<g fill="#3C3C3C">
									<path d="m96.349 21.986c-1.035 0-1.876 0.926-1.876 2.062 0 0-3.452 18.181-3.826 20.659-0.376 2.477 1.089 3.384 2.513 3.384 1.427 0 1.313 1.488 1.313 1.488l-1.686 33.938c-0.024 0.157-0.04 0.319-0.04 0.483 0 1.666 1.228 3.015 2.74 3.015s2.74-1.349 2.74-3.015v-59.952c0-1.136-0.84-2.062-1.878-2.062z"/>
									<path d="m18.834 21.986c-0.518 0-0.938 0.46-0.938 1.031v18.595c0 0.227-0.17 0.418-0.379 0.418-0.21 0-0.381-0.192-0.381-0.418v-2e-3h-1e-3v-18.593c0-0.57-0.417-1.031-0.938-1.031-0.518 0-0.936 0.46-0.936 1.031v18.683h-4e-3c-0.014 0.183-0.151 0.33-0.322 0.33-0.172 0-0.311-0.147-0.324-0.33h-4e-3l-3e-3 -18.684c0-0.57-0.421-1.031-0.937-1.031-0.52 0-0.942 0.46-0.942 1.031v18.595c0 0.227-0.166 0.418-0.376 0.418-0.209 0-0.381-0.192-0.381-0.418l2e-3 -2e-3h-2e-3v-18.592c0-0.57-0.419-1.031-0.937-1.031-0.52 0-0.939 0.46-0.939 1.031v22.725c0 1.045 0.375 2.327 2.102 2.327 1.425 0 1.314 1.487 1.314 1.487l-1.292 34.078c-0.014 0.118-0.021 0.242-0.021 0.365 0 1.666 1.224 3.015 2.738 3.015 1.513 0 2.74-1.349 2.74-3.015 0-0.124-7e-3 -0.247-0.021-0.365l-1.291-34.078s-0.113-1.487 1.312-1.487c1.728 0 2.103-1.282 2.103-2.327v-22.725c-2e-3 -0.571-0.424-1.031-0.942-1.031z"/>
									<path d="m55.105 23.026c-17.382 0-31.474 14.089-31.474 31.474 0 17.383 14.091 31.475 31.474 31.475 17.384 0 31.476-14.092 31.476-31.475 0-17.385-14.092-31.474-31.476-31.474zm0.41 51.867c-5.446 0-10.566-2.121-14.419-5.975-0.369-0.37-0.369-0.971 0-1.338 0.37-0.37 0.97-0.37 1.34 0 3.494 3.491 8.139 5.417 13.079 5.417 0.523 0 0.948 0.423 0.948 0.947 0 0.525-0.425 0.949-0.948 0.949zm14.42-5.975c-0.185 0.183-0.427 0.276-0.67 0.276-0.241 0-0.483-0.094-0.668-0.276-0.37-0.37-0.37-0.971 0-1.338 3.495-3.494 5.419-8.139 5.419-13.081 0-10.204-8.298-18.5-18.5-18.5-0.522 0-0.945-0.424-0.945-0.947s0.423-0.945 0.945-0.945c11.244 0 20.393 9.148 20.393 20.392-1e-3 5.449-2.122 10.568-5.974 14.419z"/>
								</g>
							</svg>
						</g>
						<g fill="#3C3C3C">
							<rect x="237.72" y="41.716" width="83.249" height="2.982"/>
							<rect x="76.533" y="41.716" width="83.249" height="2.982"/>
						</g>
					</svg>
				</g>
			</svg>
		</g>
	</g>
</svg>